<svg width="19" height="20" viewBox="0 0 19 20" fill="none" xmlns="http://www.w3.org/2000/svg">
<path d="M1.3335 7H17.3335M1.3335 7V15.8002C1.3335 16.9203 1.3335 17.4801 1.55148 17.9079C1.74323 18.2842 2.04897 18.5905 2.42529 18.7822C2.8527 19 3.41249 19 4.53041 19H14.1366C15.2545 19 15.8135 19 16.2409 18.7822C16.6172 18.5905 16.924 18.2842 17.1157 17.9079C17.3335 17.4805 17.3335 16.9215 17.3335 15.8036V7M1.3335 7V6.2002C1.3335 5.08009 1.3335 4.51962 1.55148 4.0918C1.74323 3.71547 2.04897 3.40973 2.42529 3.21799C2.85312 3 3.41359 3 4.53369 3H5.3335M17.3335 7V6.19691C17.3335 5.07899 17.3335 4.5192 17.1157 4.0918C16.924 3.71547 16.6172 3.40973 16.2409 3.21799C15.8131 3 15.2538 3 14.1337 3H13.3335M5.3335 3H13.3335M5.3335 3V1M13.3335 3V1M11.8335 13H6.8335" stroke="#00A954" stroke-width="2" stroke-linecap="round" stroke-linejoin="round"/>
</svg>
