<svg width="24" height="24" viewBox="0 0 24 24" fill="none" xmlns="http://www.w3.org/2000/svg">
<path d="M1.7776 15.5848C1.69033 16.0137 1.86968 16.447 2.23453 16.6887C2.76785 17.0421 3.38445 17.2551 4.03895 17.316C3.84774 17.9347 3.80537 18.5885 3.92942 19.226C4.01304 19.6556 4.34463 19.9872 4.77427 20.0708C5.37777 20.1883 6.0296 20.1631 6.68006 19.9629C6.74121 20.6159 6.95429 21.231 7.30654 21.7633C7.54635 22.1257 7.97832 22.3085 8.41024 22.2208C9.03719 22.0936 9.6241 21.8086 10.13 21.389C10.4322 21.9614 10.8645 22.4535 11.4029 22.8165C11.7657 23.0612 12.2347 23.0612 12.5976 22.8165C13.1349 22.4543 13.5665 21.9634 13.8687 21.3924C14.571 21.9745 15.4215 22.2445 15.8006 22.2445C16.154 22.2445 16.4878 22.0693 16.689 21.7657C17.0422 21.2325 17.2558 20.6162 17.3168 19.9618C17.945 20.1559 18.5981 20.1931 19.2263 20.0708C19.6559 19.9872 19.9875 19.6556 20.0711 19.226C20.1949 18.5898 20.153 17.9373 19.9627 17.3197C20.6158 17.2586 21.2313 17.046 21.7636 16.6937C22.1286 16.4521 22.3082 16.0189 22.2211 15.59C22.0939 14.963 21.8089 14.3762 21.3893 13.8703C21.9617 13.568 22.4538 13.1357 22.8168 12.5974C23.0615 12.2345 23.0615 11.7655 22.8168 11.4026C22.4546 10.8653 21.9637 10.4337 21.3927 10.1316C21.8113 9.62655 22.0957 9.0408 22.223 8.41526C22.3103 7.98639 22.1309 7.5531 21.7661 7.31131C21.2327 6.9579 20.6166 6.74438 19.9618 6.68345C20.1529 6.06496 20.1952 5.41133 20.0712 4.77402C19.9876 4.34442 19.656 4.01278 19.2264 3.92917C18.5904 3.80537 17.938 3.84727 17.3206 4.0374C17.2595 3.38432 17.0464 2.76901 16.6941 2.23667C16.4525 1.87174 16.0192 1.69213 15.5904 1.77919C14.9634 1.90646 14.3765 2.19139 13.8706 2.61106C13.5684 2.03859 13.1361 1.54647 12.5978 1.18351C12.2349 0.938807 11.7659 0.93885 11.403 1.18351C10.8658 1.54574 10.4341 2.03666 10.132 2.60762C9.62698 2.18907 9.04127 1.90466 8.41569 1.77734C7.98691 1.69007 7.55348 1.86942 7.31179 2.23427C6.95841 2.76755 6.7449 3.38407 6.68397 4.03852C6.06548 3.84744 5.4118 3.80516 4.77449 3.92917C4.34489 4.01278 4.01326 4.34437 3.92964 4.77402C3.80585 5.41004 3.84778 6.06239 4.03788 6.6798C3.38493 6.7409 2.76944 6.95403 2.23715 7.30629C1.87217 7.54786 1.69261 7.98111 1.77966 8.40998C1.90689 9.03693 2.19186 9.62384 2.61153 10.1297C2.03906 10.432 1.54694 10.8643 1.18399 11.4026C0.939322 11.7654 0.939322 12.2344 1.18399 12.5973C1.54621 13.1346 2.03713 13.5662 2.6081 13.8684C2.18932 14.3735 1.90491 14.9592 1.7776 15.5848ZM2.59052 16.1515C2.44791 16.057 2.37503 15.8808 2.40915 15.7132C2.52731 15.1324 2.80983 14.5908 3.23011 14.1357C3.92955 14.3711 4.70097 14.4236 5.42697 14.2906C5.51462 14.5422 5.61685 14.7889 5.73273 15.0285C5.13186 15.4424 4.62092 16.0237 4.29049 16.6875C3.67002 16.6633 3.08591 16.4797 2.59052 16.1515ZM18.0899 10.3263C19.0043 13.6499 17.0717 17.1053 13.7563 18.0666C9.69569 19.2394 5.68504 16.1733 5.68504 12C5.68504 9.10762 7.64612 6.64539 10.3287 5.90972C13.6901 4.98705 17.1721 6.97667 18.0899 10.3263ZM4.89738 19.4382C4.72946 19.4055 4.59471 19.2708 4.56201 19.1029C4.30497 17.7821 4.91147 16.4148 6.04232 15.5989C6.27861 15.9899 6.85628 16.6883 6.85628 16.6883L7.312 17.144C7.312 17.144 8.01046 17.7217 8.40134 17.958C8.00728 18.5048 7.47661 18.9408 6.85645 19.209C6.19507 19.4961 5.52515 19.5604 4.89738 19.4382ZM8.28206 21.5892C8.11444 21.6233 7.93835 21.5503 7.84395 21.4076C7.51675 20.9132 7.33349 20.3304 7.30895 19.7114C7.98459 19.3759 8.56011 18.8643 8.97179 18.2676C9.21139 18.3834 9.45811 18.4857 9.70965 18.5733C9.5731 19.3201 9.63579 20.0882 9.86313 20.7663C9.40728 21.1879 8.86446 21.471 8.28206 21.5892ZM12.2374 22.2821C12.0956 22.3777 11.905 22.3777 11.7632 22.2821C10.6316 21.5193 10.1129 20.1122 10.332 18.7579C10.7697 18.8657 11.678 18.952 11.678 18.952H12.3225C12.3225 18.952 13.2486 18.8613 13.6686 18.7579C13.7796 19.4642 13.6994 20.1319 13.4606 20.7348C13.1918 21.4117 12.7654 21.9261 12.2374 22.2821ZM16.1517 21.4098C16.0572 21.5523 15.8811 21.6252 15.7135 21.5911C15.1326 21.4729 14.591 21.1904 14.136 20.7702C14.3708 20.0721 14.4242 19.3022 14.2909 18.5733C14.5424 18.4857 14.7891 18.3834 15.0287 18.2675C15.4467 18.873 16.0236 19.3788 16.6878 19.7095C16.6637 20.3301 16.48 20.9143 16.1517 21.4098ZM19.4385 19.1029C19.4058 19.2708 19.271 19.4056 19.1032 19.4382C17.7554 19.7005 16.3901 19.0603 15.5992 17.9579C15.9901 17.7216 16.6885 17.144 16.6885 17.144L17.1443 16.6883C17.1443 16.6883 17.722 15.9899 17.9583 15.5989C18.1245 15.7177 18.2901 15.86 18.4259 15.9958C19.2495 16.8195 19.6576 17.9769 19.4385 19.1029ZM21.5895 15.7182C21.6235 15.8858 21.5505 16.0619 21.4079 16.1563C20.9135 16.4835 20.3309 16.6667 19.7119 16.6913C19.3804 16.0237 18.8693 15.4433 18.2678 15.0285C18.3837 14.7888 18.486 14.5422 18.5736 14.2906C19.3032 14.4243 20.0733 14.3696 20.7665 14.1371C21.1881 14.593 21.4713 15.1358 21.5895 15.7182ZM22.2824 11.7629C22.378 11.9047 22.378 12.0953 22.2824 12.2372C21.596 13.2552 20.3033 13.889 18.7582 13.6683C18.866 13.2292 18.9522 12.3222 18.9522 12.3222V11.6778C18.9522 11.6778 18.8716 10.7928 18.7582 10.3317C20.2585 10.1009 21.5843 10.7275 22.2824 11.7629ZM21.41 7.84855C21.5526 7.94304 21.6255 8.11917 21.5914 8.28674C21.4732 8.86764 21.1907 9.4093 20.7704 9.86429C20.0553 9.6238 19.2839 9.57933 18.5736 9.70939C18.4859 9.45785 18.3837 9.21117 18.2678 8.97153C18.8664 8.55899 19.3782 7.97909 19.71 7.31252C20.3305 7.33675 20.9147 7.52036 21.41 7.84855ZM19.1032 4.56179C19.271 4.59449 19.4058 4.72924 19.4385 4.89716C19.6993 6.23736 19.0696 7.60088 17.9582 8.40113C17.7219 8.0102 17.1442 7.31179 17.1442 7.31179L16.6885 6.85606C16.6885 6.85606 15.99 6.27839 15.5991 6.04211C16.3885 4.94121 17.7547 4.29943 19.1032 4.56179ZM15.7184 2.41078C15.886 2.3768 16.0621 2.44976 16.1566 2.59241C16.4837 3.08672 16.667 3.66946 16.6916 4.28838C16.0155 4.62414 15.4394 5.13762 15.0287 5.73243C14.7891 5.61659 14.5424 5.51432 14.2909 5.42667C14.4246 4.6965 14.3697 3.92672 14.1374 3.23376C14.5932 2.8122 15.1361 2.52899 15.7184 2.41078ZM11.7632 1.71787C11.905 1.62227 12.0955 1.62227 12.2374 1.71787C13.3848 2.49144 13.8879 3.92599 13.6686 5.24207C13.2209 5.13199 12.3225 5.04803 12.3225 5.04803L11.678 5.04807C11.678 5.04807 10.7685 5.13452 10.332 5.24212C10.1567 4.18994 10.4851 3.4569 10.5492 3.23613C10.7992 2.61708 11.216 2.08676 11.7632 1.71787ZM7.84885 2.59022C7.9433 2.44765 8.11951 2.37473 8.287 2.40885C8.86794 2.52706 9.40956 2.80958 9.86455 3.22981C9.6195 3.95821 9.58238 4.7307 9.70965 5.42667C9.45811 5.51432 9.21139 5.61654 8.97179 5.73243C8.55199 5.12387 7.97028 4.61748 7.31277 4.29019C7.33697 3.66972 7.52057 3.08565 7.84885 2.59022ZM4.56201 4.89712C4.59471 4.7292 4.72946 4.59445 4.89738 4.56175C6.23611 4.30119 7.60217 4.93016 8.40134 6.04206C8.01041 6.27835 7.312 6.85602 7.312 6.85602L6.85632 7.3117C6.85632 7.3117 6.27865 8.01011 6.04236 8.40104C4.92591 7.5977 4.30222 6.23216 4.56201 4.89712ZM2.41104 8.2818C2.37701 8.11418 2.45001 7.9381 2.59263 7.84369C3.08694 7.51653 3.66972 7.33331 4.28864 7.30869C4.629 7.99413 5.14625 8.56707 5.73269 8.97153C5.6168 9.21117 5.51458 9.45781 5.42692 9.70939C4.7225 9.57988 3.94928 9.62307 3.23406 9.86288C2.81241 9.40706 2.52925 8.86424 2.41104 8.2818ZM1.71817 12.2372C1.62257 12.0953 1.62257 11.9047 1.71817 11.7629C2.31045 10.8844 3.29903 10.3848 4.28297 10.2978C4.65147 10.264 4.92849 10.2869 5.24237 10.3317C5.13663 10.761 5.04828 11.6778 5.04828 11.6778V12.3222C5.04828 12.3222 5.13461 13.2302 5.24233 13.6683C5.04343 13.6963 4.88891 13.7182 4.63119 13.7182C3.46626 13.7182 2.35939 13.1883 1.71817 12.2372Z" fill="#999999" stroke="#999999" stroke-width="0.4"/>
</svg>
